<?xml version="1.0" encoding="UTF-8"?>
<svg width="991px" height="256px" viewBox="0 0 991 256" version="1.1" xmlns="http://www.w3.org/2000/svg" xmlns:xlink="http://www.w3.org/1999/xlink">
    <!-- Generator: Sketch 48.2 (47327) - http://www.bohemiancoding.com/sketch -->
    <title>Group</title>
    <desc>Created with Sketch.</desc>
    <defs></defs>
    <g id="Page-1" stroke="none" stroke-width="1" fill="none" fill-rule="evenodd">
        <g id="Group" fill-rule="nonzero">
            <path d="M570.29,217.44 L570.29,37.34 L608.47,37.34 L608.47,217.44 L570.29,217.44 Z M665.32,191.49 L686.02,162.49 C700.885085,178.007881 721.461137,186.75442 742.95,186.69 C763.95,186.69 774.14,176.99 774.14,166.78 C774.14,135.08 670.97,156.85 670.97,89.38 C670.97,59.57 696.75,34.86 738.97,34.86 C767.46,34.86 791.09,43.43 808.81,59.86 L787.56,87.78 C773.06,74.35 753.72,68.18 735.44,68.18 C719.03,68.18 709.89,75.43 709.89,86.18 C709.89,114.67 812.83,95.6 812.83,162.5 C812.83,195.28 789.42,219.99 741.08,219.99 C706.67,220 682,208.42 665.32,191.49 Z M863.52,217.44 L863.52,37.34 L990.33,37.34 L990.33,73.72 L901.66,73.72 L901.66,109 L988.47,109 L988.47,142.57 L901.66,142.57 L901.66,179.35 L990.33,179.35 L990.33,217.41 L863.52,217.44 Z M509.57,102.27 C509.57,66.55 480.86,37.34 445.57,37.34 L358.64,37.34 L358.64,217.44 L396.64,217.44 L396.64,167.2 L434.56,167.2 L463.56,217.43 L507.65,217.43 L474.5,160.06 C496.054202,148.846082 509.574425,126.566822 509.57,102.27 Z M396.57,75.27 L445.52,75.27 C452.644774,75.2774379 459.47014,78.136407 464.473242,83.2090228 C469.476344,88.2816387 472.240868,95.1458013 472.15,102.27 C472.07928,117.121145 460.08087,129.155212 445.23,129.27 L396.62,129.27 L396.57,75.27 Z" id="Shape" fill="#464646"></path>
            <path d="M128,36 C77.189803,36 36,77.189803 36,128 C36,178.810197 77.189803,220 128,220 C178.810197,220 220,178.810197 220,128 C220,77.189803 178.810197,36 128,36 Z M128,180 C99.281193,180 76,156.718807 76,128 C76,99.281193 99.281193,76 128,76 C156.718807,76 180,99.281193 180,128 C180,141.791257 174.521444,155.017661 164.769553,164.769553 C155.017661,174.521444 141.791257,180 128,180 Z" id="Shape" fill="#FFD88F" opacity="0.5"></path>
            <path d="M128,0 C57.307552,-4.32866401e-15 8.65732801e-15,57.307552 0,128 C-8.65732801e-15,198.692448 57.307552,256 128,256 C198.692448,256 256,198.692448 256,128 C256,94.0522893 242.514324,61.4949884 218.509668,37.490332 C194.505012,13.4856756 161.947711,2.07869776e-15 128,0 Z M128,218 C78.2943725,218 38,177.705627 38,128 C38,78.2943725 78.2943725,38 128,38 C177.705627,38 218,78.2943725 218,128 C218,151.869484 208.517884,174.761336 191.63961,191.63961 C174.761336,208.517884 151.869484,218 128,218 Z" id="Shape" fill="#FFAF00"></path>
        </g>
    </g>
</svg>