<?xml version="1.0" encoding="UTF-8"?>
<svg width="280px" height="80px" viewBox="0 0 280 80" version="1.1" xmlns="http://www.w3.org/2000/svg" xmlns:xlink="http://www.w3.org/1999/xlink">
    <!-- Generator: Sketch 46.2 (44496) - http://www.bohemiancoding.com/sketch -->
    <title>Mobify Full Color</title>
    <desc>Created with Sketch.</desc>
    <defs></defs>
    <g id="Brand-Assets" stroke="none" stroke-width="1" fill="none" fill-rule="evenodd">
        <g id="Mobify-Full-Color" fill-rule="nonzero">
            <path d="M48.6258,51.3551 C48.6258,51.3551 39.1349,41.334 33.32,39.76 C27.543,38.0531 14.208,41.6136 14.208,41.6136 L15.9734,51.31 L29.9717,51.3118 L42.0964,58.8318 L48.6258,51.3551 Z" id="Shape" fill="#F48332"></path>
            <path d="M51.3309,30.6717 L51.75,16.4975 L42.0095,14.5816 C42.0095,14.5816 38.0765,27.8116 39.6208,33.6341 C41.0308,39.4906 50.7821,49.2587 50.7821,49.2587 L58.4398,42.9414 L51.3309,30.6717 Z" id="Shape" fill="#DB1E3E"></path>
            <path d="M29.816,10.29 L22.7442,22.5808 L10.26,29.3051 L13.471,38.6986 C13.471,38.6986 26.8947,35.49 31.1651,31.241 C35.5318,27.091 39.1158,13.7627 39.1158,13.7627 L29.816,10.29 Z" id="Shape" fill="#0288A7"></path>
            <path d="M29.9751,51.3122 L48.6258,51.3551 C48.6258,51.3551 39.1349,41.334 33.32,39.76 C27.543,38.0531 14.208,41.6136 14.208,41.6136 L29.9751,51.3122 Z" id="Shape" fill="#EF4B34"></path>
            <path d="M51.3291,30.6687 L42.0091,14.5817 C42.0091,14.5817 38.0761,27.8117 39.6204,33.6342 C41.0304,39.4907 50.7817,49.2588 50.7817,49.2588 L51.3291,30.6687 Z" id="Shape" fill="#B41F24"></path>
            <path d="M22.7426,22.5837 L13.4708,38.6986 C13.4708,38.6986 26.8947,35.49 31.1651,31.241 C35.5318,27.091 39.1158,13.7627 39.1158,13.7627 L22.7426,22.5837 Z" id="Shape" fill="#005C82"></path>
            <polygon id="Shape" fill="#000000" points="76.69 11.2759 84.8789 11.2759 97.8272 33.3359 110.5659 11.2759 118.7548 11.2759 120.3348 57.9342 111.7261 57.9342 110.8461 25.6367 99.6466 44.6743 95.5166 44.6743 84.2486 26.1266 83.5427 57.9342 75.2827 57.9342"></polygon>
            <path d="M124.3981,41.5246 C124.385135,39.2103723 124.824994,36.915957 125.6929,34.7706 C127.363472,30.5465626 130.670036,27.1768163 134.8617,25.4266 C139.462408,23.560151 144.609392,23.560151 149.2101,25.4266 C151.297407,26.304727 153.188955,27.5897136 154.7744,29.2066 C156.324775,30.8106184 157.54893,32.7004269 158.3789,34.7711 C161.026895,41.2961987 159.617631,48.7667627 154.7744,53.8787 C153.197344,55.5141703 151.304233,56.8119225 149.2101,57.6931 C144.609392,59.559549 139.462408,59.559549 134.8617,57.6931 C132.767446,56.8121438 130.874293,55.5143628 129.2974,53.8787 C126.130677,50.5477637 124.375091,46.1210482 124.3981,41.5251 L124.3981,41.5246 Z M142.0357,51.9533 C143.469746,51.9890094 144.889812,51.6641477 146.1657,51.0085 C147.303907,50.4025718 148.295367,49.5543779 149.0702,48.5237 C149.832725,47.5118382 150.413074,46.374828 150.7852,45.1637 C151.153049,43.9852454 151.341821,42.7582268 151.3452,41.5237 C151.336273,40.3012419 151.147587,39.0867442 150.7852,37.9192 C150.422342,36.7043374 149.841187,35.5657471 149.0702,34.5592 C148.28735,33.5452071 147.297135,32.7099417 146.1657,32.1092 C143.556833,30.8492076 140.515467,30.8492076 137.9066,32.1092 C136.774999,32.7096957 135.784735,33.5450018 135.0021,34.5592 C134.230924,35.5655538 133.649904,36.7042119 133.2876,37.9192 C132.924549,39.0865904 132.735848,40.301187 132.7276,41.5237 C132.730304,42.7582793 132.919091,43.9853984 133.2876,45.1637 C133.659172,46.3749564 134.239385,47.5120316 135.0021,48.5237 C135.776717,49.5545816 136.768226,50.4028176 137.9066,51.0085 C139.182115,51.6641865 140.601869,51.9890554 142.0356,51.9533 L142.0357,51.9533 Z" id="Shape" fill="#000000"></path>
            <path d="M164.0545,11.2882 L172.3136,11.2882 L172.3136,27.3862 C173.274543,26.5820916 174.362516,25.9433798 175.533,25.4962 C177.352541,24.7518334 179.307074,24.3942534 181.2723,24.4462 C183.457188,24.4050192 185.622977,24.8597512 187.6068,25.7762 C189.408287,26.6319991 191.015929,27.8468419 192.3311,29.3462 C193.671309,30.9005027 194.683176,32.709904 195.3058,34.6655 C195.989611,36.767132 196.332287,38.9647496 196.3208,41.1748 C196.337501,43.5575181 195.897994,45.9214125 195.026,48.1389 C194.191715,50.2633561 192.928813,52.1932141 191.316,53.8082 C189.639427,55.4625283 187.65366,56.7707202 185.4719,57.6582 C183.026726,58.6444018 180.409171,59.1321803 177.7729,59.0929 C175.13192,59.1110973 172.495252,58.876697 169.8989,58.3929 C167.91978,58.0352593 165.967122,57.544138 164.0543,56.9229 L164.0545,11.2882 Z M172.3136,51.2535 C172.973085,51.4891981 173.652512,51.664845 174.3436,51.7783 C175.434361,51.9186714 176.534103,51.9771682 177.6336,51.9533 C179.149627,51.9869656 180.654648,51.6883779 182.043,51.0785 C183.264094,50.5234902 184.359457,49.7257675 185.2624,48.7339 C186.151085,47.749628 186.829833,46.5945526 187.2572,45.3392 C187.698478,44.0674719 187.923232,42.7307119 187.9221,41.3846 C187.92587,40.1568654 187.773037,38.9336632 187.4673,37.7446 C187.185702,36.6265525 186.699063,35.5704723 186.0321,34.63 C185.383148,33.7241064 184.532717,32.9812673 183.5478,32.46 C182.431408,31.8975662 181.192903,31.6209341 179.9433,31.6549 C177.859923,31.5004428 175.80257,32.1946544 174.2387,33.5798 C172.90116,35.0037412 172.205582,36.9135986 172.3141,38.8642 L172.3136,51.2535 Z" id="Shape" fill="#000000"></path>
            <path d="M260.9854,25.2733 L252.7263,47.7405 L243.3474,25.2733 L226.4038,25.2733 L226.4038,20.5126 C226.380811,18.845218 226.992484,17.2314374 228.1149,15.9982 C229.171156,14.9256892 230.633731,14.3530578 232.1374,14.4233 C233.233692,14.5129056 234.292259,14.8653155 235.2235,15.4507 L237.3112,8.3568 C236.852087,8.17540655 236.380457,8.02745398 235.9,7.9141 C234.164981,7.51631026 232.392412,7.30511064 230.6125,7.2841 C220.0292,7.2841 218.6278,15.8411 218.6278,20.3723 L218.6278,25.2732 L213.1843,25.2732 L213.1843,31.4943 L218.6278,31.4943 L218.6278,57.9343 L226.4042,57.9343 L226.4042,31.4943 L236.657,31.4943 L248.597,57.7557 C248.597,57.7557 246.7412,62.8412 245.8643,63.9441 C242.6578,67.9767 239.0807,65.8757 238.8243,65.6841 L237.4057,71.7277 C237.7306,71.8807 238.0644,72.0218 238.4136,72.1471 C239.916394,72.6301799 241.49027,72.8547343 243.0682,72.8112 C244.941157,72.8852675 246.793494,72.3977279 248.3873,71.4112 C249.800027,70.4643853 251.003167,69.2374199 251.9221,67.8064 C252.896391,66.2993788 253.705906,64.6920166 254.3367,63.012 C254.9898,61.2851 255.6425,59.6685 256.2967,58.0358 L270.0153,25.2731 L260.9854,25.2733 Z" id="Shape" fill="#000000"></path>
            <circle id="Oval" fill="#000000" cx="204.6913" cy="15.3854" r="5.1097"></circle>
            <rect id="Rectangle-path" fill="#000000" x="200.6082" y="25.2733" width="8.2591" height="32.6608"></rect>
        </g>
    </g>
</svg>